<?xml version="1.0" standalone="no"?>
<!DOCTYPE svg PUBLIC "-//W3C//DTD SVG 20010904//EN"
 "http://www.w3.org/TR/2001/REC-SVG-20010904/DTD/svg10.dtd">
<svg version="1.0" xmlns="http://www.w3.org/2000/svg"
 width="100" height="100" viewBox="0 0 500.000000 500.000000"
 preserveAspectRatio="xMidYMid meet">

<g transform="translate(0.000000,500.000000) scale(0.100000,-0.100000)"
fill="#000000" stroke="none">
<path d="M2374 4035 c-3 -8 -33 -31 -65 -51 -32 -19 -59 -38 -59 -42 -1 -21
-34 -44 -88 -61 l-62 -19 18 27 c17 25 42 76 42 87 0 15 -42 -21 -61 -53 -37
-62 -60 -83 -139 -124 -41 -21 -95 -50 -119 -65 -38 -23 -43 -25 -36 -8 4 10
9 44 12 74 4 54 4 55 -11 24 -7 -17 -28 -50 -44 -73 -17 -23 -33 -55 -37 -70
-6 -29 -107 -125 -119 -114 -3 4 -6 16 -7 27 -1 12 -5 2 -11 -21 -6 -28 -26
-61 -62 -101 -29 -32 -68 -80 -86 -106 l-34 -47 -11 56 c-13 64 -34 95 -33 49
0 -16 -2 -45 -5 -64 -6 -34 -6 -34 7 4 10 31 14 36 19 22 10 -26 9 -59 -4 -95
-14 -38 -26 -40 -32 -3 -2 15 -3 8 -2 -16 4 -58 -51 -170 -72 -149 -8 7 -16
31 -19 53 -5 31 -3 36 6 24 10 -13 11 -12 6 3 -3 10 -6 21 -6 23 0 2 -5 4 -11
4 -8 0 -9 -15 -5 -47 4 -27 10 -64 13 -84 3 -24 -5 -67 -25 -130 -16 -52 -33
-109 -37 -126 -8 -41 -19 -42 -35 -4 -6 16 -23 40 -37 53 -24 21 -25 21 -18 3
4 -11 12 -47 16 -79 5 -33 17 -71 26 -85 19 -30 19 -124 -1 -152 -12 -17 -14
-17 -35 12 -12 16 -21 35 -19 41 2 6 14 -4 26 -23 12 -19 22 -28 22 -21 0 7
-16 29 -36 50 -35 36 -36 37 -30 10 4 -16 20 -48 37 -72 32 -45 32 -47 63
-346 2 -19 7 -43 11 -54 7 -16 6 -17 -13 -7 -19 10 -76 100 -68 108 2 2 19 -9
37 -24 19 -15 28 -20 20 -10 -20 25 -61 53 -91 62 -24 7 -24 6 6 -26 18 -19
39 -48 48 -66 9 -17 29 -41 44 -52 21 -14 34 -37 45 -77 21 -74 13 -90 -31
-62 -20 13 -29 24 -22 28 6 4 1 11 -15 18 -54 25 -23 -11 75 -87 18 -13 49
-58 72 -104 22 -44 51 -98 64 -119 28 -45 29 -49 7 -41 -9 4 1 -10 23 -30 65
-60 0 -41 -76 23 l-25 21 30 -6 c25 -5 27 -4 12 5 -9 6 -34 10 -55 8 l-37 -3
35 -16 c19 -9 49 -28 67 -43 17 -14 45 -29 62 -32 21 -4 46 -24 78 -62 31 -36
41 -53 28 -48 -11 5 -42 10 -70 13 l-50 4 22 -19 c13 -11 45 -22 76 -26 43 -6
63 -15 107 -52 30 -25 81 -66 114 -92 54 -44 57 -47 35 -53 l-24 -7 25 -1 c14
-1 41 -10 60 -21 l35 -19 -35 0 c-48 -1 -132 25 -105 32 15 3 16 5 3 6 -9 0
-29 -4 -45 -11 -28 -11 -28 -12 22 -20 28 -4 84 -12 125 -16 55 -5 87 -15 120
-35 36 -22 41 -27 22 -27 -12 0 -39 -7 -60 -16 -33 -14 -35 -16 -18 -26 13 -7
29 -7 56 1 61 18 109 13 215 -24 55 -19 108 -35 118 -35 27 0 20 -16 -12 -30
-16 -6 -40 -23 -53 -37 -21 -24 -21 -25 -3 -18 11 4 45 11 75 15 31 4 71 15
89 24 26 14 46 16 97 11 35 -4 67 -12 71 -18 3 -6 1 -7 -5 -3 -14 8 -61 -15
-86 -43 -19 -21 -19 -21 0 -21 11 0 43 15 72 34 44 28 66 35 130 40 42 4 108
9 146 13 l69 6 -21 -21 c-12 -12 -31 -40 -43 -64 l-21 -43 28 26 c16 15 48 36
71 48 23 11 51 34 62 50 14 19 35 32 65 40 24 6 52 14 62 18 16 6 16 3 -4 -24
-26 -37 -45 -83 -33 -83 9 0 40 35 88 98 12 16 57 45 100 66 43 21 99 51 126
67 26 16 47 27 47 25 0 -2 -7 -20 -15 -39 -18 -43 -21 -124 -4 -94 6 9 7 26 4
36 -3 11 0 34 8 53 16 36 67 89 67 69 0 -19 -26 -64 -49 -85 -12 -11 -21 -24
-21 -30 0 -19 50 47 75 99 23 49 128 153 111 110 -4 -11 -10 -42 -12 -70 l-5
-50 20 24 c12 13 20 33 20 45 -1 20 -2 20 -6 1 -6 -26 -23 -44 -23 -24 0 7 5
32 12 54 10 37 12 38 18 15 6 -23 7 -22 14 12 5 26 26 58 69 106 34 37 76 86
94 108 l32 39 1 -40 c0 -22 7 -53 15 -70 l13 -30 1 31 c1 17 8 52 17 78 9 26
14 62 11 80 -4 24 3 46 29 91 26 46 34 54 34 36 0 -35 22 -101 33 -101 5 0 6
34 2 88 -7 85 -6 90 39 222 25 74 46 128 46 119 0 -20 57 -109 69 -109 6 0 3
16 -5 35 -7 19 -14 50 -14 70 0 20 -8 52 -19 73 -14 29 -17 48 -11 87 4 28 11
58 15 68 7 17 10 16 31 -10 24 -29 29 -43 16 -43 -4 0 -15 12 -24 28 -10 15
-18 21 -18 14 0 -7 16 -29 36 -50 35 -36 36 -37 30 -10 -4 16 -20 49 -36 75
-34 54 -37 69 -44 221 l-5 113 31 -26 c16 -14 33 -23 38 -20 4 3 10 -2 14 -10
3 -8 13 -15 23 -15 17 1 17 1 0 11 -9 6 -29 33 -43 61 -14 28 -40 65 -59 82
-21 20 -35 45 -39 69 -4 21 -10 45 -13 53 -3 9 9 6 38 -11 62 -35 82 -31 38 8
-20 17 -49 41 -64 51 -17 12 -45 55 -73 115 -25 53 -56 114 -70 135 -20 32
-21 38 -7 32 10 -4 4 7 -14 26 -18 18 -27 34 -22 36 15 5 63 -23 91 -53 l25
-28 -30 7 c-22 5 -26 4 -15 -4 8 -5 33 -9 55 -9 36 0 37 1 16 10 -13 5 -42 25
-63 45 -21 19 -52 37 -69 41 -21 4 -43 23 -75 64 -44 58 -45 59 -23 67 21 8
21 9 -9 15 -19 4 -64 36 -119 85 -48 43 -117 100 -152 125 l-63 47 41 0 c38 0
120 25 110 34 -9 8 -68 -7 -63 -16 10 -16 -114 -4 -129 11 -10 11 0 13 53 8
38 -3 57 -1 45 3 -11 5 -47 9 -80 9 -43 1 -75 9 -115 28 -55 26 -55 26 -25 33
25 5 20 8 -34 14 -35 5 -94 19 -130 31 -36 13 -94 29 -128 36 -60 12 -62 13
-35 24 33 14 92 63 92 76 0 6 -10 3 -22 -5 -12 -9 -34 -16 -48 -17 l-25 -1 24
-7 24 -7 -26 -17 c-28 -18 -113 -24 -102 -7 3 5 20 14 38 19 20 6 25 10 12 10
-11 1 -34 -8 -52 -19 -27 -16 -43 -18 -98 -13 -36 3 -68 9 -71 14 -4 8 56 59
70 59 14 0 -6 -22 -38 -41 -17 -10 -24 -19 -16 -19 9 0 34 19 55 41 36 37 37
40 15 34 -13 -4 -47 -23 -74 -42 -27 -18 -58 -35 -70 -38 -19 -3 -201 -24
-271 -31 -16 -1 -41 -6 -55 -10 l-25 -7 25 27 c25 28 100 72 100 59 0 -4 -12
-20 -27 -35 -15 -15 -21 -28 -15 -28 13 0 57 63 67 98 7 24 -2 31 -11 7z
m-248 -113 c-8 -16 -23 -35 -32 -43 -16 -12 -17 -12 -9 1 16 28 46 70 51 70 2
0 -2 -13 -10 -28z m553 -6 c15 -8 34 -22 41 -31 15 -18 51 -38 88 -49 33 -11
28 10 -13 51 l-36 36 51 -6 c43 -5 61 -15 108 -55 55 -47 129 -92 152 -92 7 0
-9 23 -34 52 -25 29 -44 53 -42 55 6 6 163 -53 190 -70 14 -10 37 -39 50 -65
13 -26 39 -60 56 -77 l33 -30 -6 40 c-4 21 -17 53 -29 70 l-22 30 24 -16 c14
-8 41 -25 61 -37 27 -16 43 -38 63 -85 16 -38 44 -81 71 -107 l43 -42 -24 68
c-13 37 -22 69 -20 71 5 5 122 -101 171 -155 45 -50 48 -58 55 -125 10 -87 29
-145 41 -125 5 7 9 20 9 28 0 12 -2 12 -9 2 -12 -19 -31 39 -31 92 1 36 2 38
12 21 6 -10 17 -37 24 -60 7 -22 13 -32 13 -23 1 9 -3 28 -9 42 -14 39 -6 32
34 -28 29 -44 36 -65 37 -108 2 -51 2 -52 8 -13 l6 39 13 -27 c6 -15 13 -49
13 -75 l2 -47 6 40 6 40 27 -60 c53 -120 59 -165 34 -240 -4 -11 1 -6 11 10
l18 30 3 -31 c2 -18 -5 -49 -14 -70 l-18 -39 -6 40 -7 40 -2 -49 c-1 -48 -1
-49 19 -31 10 9 24 33 31 52 6 19 13 32 15 30 3 -2 9 -29 13 -58 8 -48 6 -61
-19 -115 -24 -54 -46 -174 -31 -174 3 0 20 26 37 57 l32 58 6 -65 c4 -37 2
-86 -4 -115 -6 -27 -13 -84 -15 -125 -4 -96 -13 -117 -73 -177 -70 -70 -129
-188 -64 -130 15 14 41 37 57 52 23 21 20 20 -11 -4 -23 -17 -45 -31 -48 -31
-14 0 25 58 68 99 l46 45 -11 -35 c-5 -19 -12 -45 -15 -59 -8 -40 -64 -167
-86 -195 -11 -14 -43 -36 -72 -50 -29 -14 -63 -36 -76 -50 l-23 -25 34 0 c19
0 45 7 57 16 34 24 34 14 1 -37 -25 -39 -40 -50 -97 -73 -37 -14 -87 -45 -112
-67 -49 -44 -51 -43 53 -15 l47 13 -34 -41 c-18 -22 -54 -58 -80 -80 -40 -34
-54 -40 -104 -43 -31 -3 -68 -8 -82 -13 -69 -23 -68 -21 -26 -36 21 -8 49 -11
62 -8 37 9 29 -3 -23 -36 -41 -26 -56 -30 -122 -30 -50 0 -93 -6 -125 -18
l-48 -19 47 -6 c26 -4 62 -7 79 -7 30 -1 30 -2 -19 -27 -60 -31 -151 -63 -179
-63 -12 0 -34 7 -50 15 -15 8 -38 15 -50 14 -11 0 2 -8 29 -17 l50 -17 -47 -3
c-50 -3 -89 11 -85 30 1 7 -7 13 -18 15 -16 3 -13 -2 13 -27 23 -22 43 -30 70
-31 l37 -1 -30 -9 c-29 -9 -59 -13 -264 -39 -133 -17 -189 -8 -243 39 -43 37
-107 75 -115 67 -10 -9 29 -67 55 -81 26 -16 26 -16 -28 -10 -58 7 -107 35
-136 80 -8 13 -23 26 -32 30 -9 3 3 -14 28 -39 46 -48 39 -60 -16 -27 -37 23
-82 81 -62 81 7 0 0 8 -17 19 -16 10 -32 17 -34 15 -2 -2 17 -28 43 -59 26
-30 43 -55 37 -55 -16 0 -161 58 -187 75 -14 9 -36 40 -50 69 -14 29 -39 66
-56 82 l-31 29 6 -44 c3 -26 14 -52 27 -65 l22 -21 -21 35 c-28 47 -28 70 0
44 25 -22 63 -94 51 -94 -5 0 -12 3 -16 7 -3 4 -13 8 -22 9 -8 1 -37 16 -63
34 -41 26 -52 40 -71 90 -19 51 -96 158 -106 147 -2 -1 5 -31 15 -65 11 -34
16 -62 12 -62 -11 0 -138 133 -150 157 -6 12 -11 39 -11 61 0 46 -29 137 -40
125 -5 -4 -11 -26 -14 -48 l-6 -40 11 35 12 35 13 -30 c7 -16 13 -48 13 -70
l0 -40 -18 34 c-11 20 -20 29 -23 21 -2 -8 -17 4 -36 30 -29 40 -32 51 -32
116 0 51 -7 89 -22 131 l-23 58 -7 -68 c-3 -38 -8 -71 -11 -73 -2 -2 -21 33
-42 78 -40 88 -46 136 -25 187 6 17 10 36 7 43 -3 8 -6 5 -7 -7 0 -11 -7 -31
-15 -45 -14 -24 -14 -24 -14 20 0 25 6 56 14 70 l14 25 2 -25 c1 -22 2 -21 10
9 12 40 4 52 -16 25 -22 -27 -35 -61 -36 -92 l-1 -27 -9 30 c-13 42 -32 164
-31 197 1 15 11 46 24 70 l23 43 3 -32 c2 -18 -6 -53 -17 -79 -12 -26 -21 -52
-21 -58 1 -6 12 14 25 44 17 38 24 73 24 115 l0 60 -34 -65 c-50 -97 -51 -87
-32 249 5 80 10 99 33 133 15 21 35 43 44 48 17 9 85 128 78 135 -2 2 -26 -14
-53 -35 -27 -21 -51 -38 -52 -36 -8 8 61 174 80 195 12 12 40 32 63 42 41 20
102 74 93 84 -3 2 -18 0 -35 -4 -18 -6 -22 -10 -10 -10 19 -1 19 -1 0 -22 -22
-24 -105 -70 -88 -48 6 8 11 21 11 29 0 8 14 38 32 66 27 44 41 56 94 79 54
23 157 100 146 109 -2 2 -17 -3 -34 -10 -16 -7 -24 -13 -16 -14 26 0 -21 -41
-78 -66 -30 -13 -55 -23 -57 -22 -4 5 30 43 56 62 16 12 19 16 7 12 -13 -4 -6
10 21 41 89 106 130 133 200 133 48 0 128 30 110 41 -7 5 -20 9 -28 9 -13 0
-13 -2 -1 -9 19 -12 -53 -34 -94 -29 -28 3 -26 5 25 25 30 12 49 22 42 22 -7
1 -28 -6 -47 -13 -19 -8 -35 -14 -35 -13 0 2 23 21 52 42 48 37 57 40 137 46
55 4 102 14 131 27 l45 21 -40 0 c-26 0 -35 -2 -27 -8 21 -13 -41 -31 -107
-31 -54 0 -55 0 -32 16 12 9 46 20 74 24 45 6 47 8 17 9 -33 2 -30 5 54 47 97
47 130 52 196 29 45 -16 120 -20 120 -7 0 4 -10 13 -22 21 -21 13 -22 13 -9
-2 12 -15 10 -17 -14 -17 -38 0 -105 21 -105 33 0 5 21 7 51 5 29 -3 45 -2 37
3 -7 5 -22 9 -33 10 -40 2 71 29 147 35 43 4 81 11 84 15 9 15 202 11 233 -5z
m61 4 c-13 -8 -13 -10 1 -10 17 0 74 -48 66 -56 -8 -8 -61 16 -85 39 -21 20
-22 22 -5 28 27 11 40 10 23 -1z m200 -30 c13 0 79 -59 91 -82 10 -19 9 -19
-28 1 -42 21 -121 99 -90 88 10 -4 23 -7 27 -7z m-1139 -142 c-12 -32 -48 -78
-62 -78 -13 0 8 48 37 86 31 41 41 38 25 -8z m1505 -63 l7 -30 -23 20 c-21 19
-60 85 -60 102 0 19 70 -65 76 -92z m163 -65 c10 -19 21 -48 25 -65 l7 -29
-21 19 c-23 20 -52 72 -65 113 -6 22 -5 22 15 10 12 -7 30 -29 39 -48z m-2168
-697 c-21 -42 -91 -114 -91 -94 0 24 30 70 67 100 21 17 39 31 40 31 2 0 -5
-17 -16 -37z m2765 -14 c11 -18 -15 -9 -44 16 -16 13 -33 21 -37 17 -5 -4 -5
-2 -1 5 5 9 16 7 41 -9 19 -11 38 -24 41 -29z m-2911 -80 c9 -17 15 -48 13
-72 -3 -40 -4 -41 -16 -19 -14 24 -29 122 -19 122 4 0 14 -14 22 -31z m2937
-112 c25 -50 17 -57 -21 -19 -17 16 -31 28 -33 27 -2 -2 -4 13 -5 32 -2 35 -1
35 19 16 11 -10 29 -35 40 -56z m-88 -134 c-26 -54 -28 -56 -32 -29 -2 15 7
52 20 81 21 50 24 52 31 29 6 -18 2 -38 -19 -81z m58 -451 c3 -33 2 -50 -4
-44 -18 18 -35 82 -30 114 l5 31 12 -24 c7 -13 15 -48 17 -77z m-2674 -331
l-3 -56 -18 39 c-14 30 -17 50 -11 90 l7 51 14 -34 c8 -19 13 -57 11 -90z
m2540 -26 c1 -25 -1 -27 -8 -10 -5 11 -8 36 -8 55 0 32 1 33 8 10 4 -14 8 -38
8 -55z m-87 22 c-6 -8 -9 -17 -6 -20 3 -4 2 -5 -1 -2 -4 2 -18 -5 -32 -15 -13
-11 -34 -20 -45 -20 -20 0 -20 0 -1 21 28 31 110 65 85 36z m-14 -134 c-2 -21
-12 -54 -20 -73 l-15 -35 -1 41 c-1 47 16 104 31 104 6 0 9 -15 5 -37z m-108
-59 c-14 -14 -50 -31 -80 -39 l-54 -14 34 29 c33 28 111 62 120 53 3 -2 -6
-15 -20 -29z m-2224 -79 l30 -14 -40 6 c-22 3 -47 9 -55 14 -27 15 32 9 65 -6z
m234 -98 c10 -23 22 -53 26 -67 l7 -25 -27 25 c-30 27 -55 77 -55 111 0 31 23
9 49 -44z m1753 -49 c-6 -6 -37 -13 -69 -15 -55 -4 -57 -3 -33 11 31 19 120
22 102 4z m-172 -123 c-28 -16 -140 -20 -140 -6 0 14 26 19 100 19 61 1 64 0
40 -13z m-1375 -90 c-22 -7 -44 -10 -49 -7 -14 8 24 21 59 20 28 0 28 -1 -10
-13z m501 -57 c21 -22 24 -29 11 -25 -10 4 -22 7 -27 7 -12 0 -70 50 -70 60 0
17 58 -11 86 -42z m627 -29 c-23 -39 -46 -60 -37 -33 7 18 43 64 51 64 2 0 -4
-14 -14 -31z m-163 -24 c-33 -35 -113 -80 -101 -57 13 24 48 55 79 69 42 18
47 15 22 -12z m-554 0 c-21 -16 -97 -30 -118 -22 -22 8 54 36 97 36 37 0 38
-1 21 -14z m159 -35 c-3 -6 -21 -17 -38 -26 l-32 -15 28 25 c28 26 54 35 42
16z"/>
<path d="M2485 3885 l40 -25 -32 0 c-18 0 -56 9 -85 20 -69 26 -85 25 -28 -1
41 -19 193 -41 179 -25 -8 8 -99 56 -107 56 -4 0 11 -12 33 -25z"/>
<path d="M1528 3403 c7 -3 16 -2 19 1 4 3 -2 6 -13 5 -11 0 -14 -3 -6 -6z"/>
<path d="M2210 3363 c-40 -11 -132 -16 -332 -20 -153 -3 -278 -9 -278 -14 0
-5 11 -9 25 -9 43 0 94 -27 115 -62 19 -32 20 -49 20 -651 0 -672 2 -651 -56
-696 -15 -12 -44 -24 -66 -27 -113 -19 8 -24 474 -22 l513 3 57 155 c31 85 57
161 57 168 2 28 -17 8 -46 -51 -43 -86 -93 -141 -161 -174 l-57 -28 -287 -3
-288 -3 0 315 0 316 216 0 216 0 34 -34 c24 -24 34 -43 34 -64 0 -17 5 -34 10
-37 7 -4 10 53 10 164 0 107 -4 171 -10 171 -5 0 -10 -16 -10 -35 0 -24 -9
-45 -29 -67 l-29 -33 -221 -3 -221 -3 0 330 0 331 126 0 c175 0 216 -22 231
-125 12 -87 23 -43 23 90 0 74 -3 135 -7 134 -5 -1 -33 -8 -63 -16z"/>
<path d="M1364 3198 l-19 -21 28 18 c28 18 33 25 19 25 -5 0 -17 -10 -28 -22z"/>
<path d="M3834 3084 c3 -18 12 -47 20 -65 l14 -34 0 40 c0 22 -2 33 -6 25 -4
-10 -10 -2 -19 25 -11 33 -12 35 -9 9z"/>
<path d="M2310 3001 c0 -4 20 -11 45 -14 100 -14 226 -111 337 -261 120 -162
258 -495 293 -706 20 -126 21 -456 1 -504 -18 -43 -59 -75 -108 -82 -92 -15
-21 -24 192 -24 147 0 230 4 230 10 0 6 -12 10 -26 10 -40 0 -94 30 -115 64
-17 28 -19 53 -19 256 0 257 11 328 81 535 129 381 348 672 528 701 52 8 53
24 3 24 -48 0 -132 -24 -196 -57 -149 -75 -296 -295 -422 -630 -22 -57 -42
-103 -45 -103 -4 0 -21 41 -38 91 -91 259 -182 420 -304 535 -90 86 -159 125
-259 149 -69 16 -178 20 -178 6z"/>
<path d="M1224 2716 c-19 -19 -34 -40 -34 -46 0 -7 10 2 23 20 21 32 47 50 47
33 0 -8 -18 -37 -57 -93 l-17 -25 23 20 c20 17 71 103 71 120 0 14 -26 1 -56
-29z"/>
<path d="M3978 2313 c-27 -30 -58 -84 -58 -104 0 -7 10 -5 28 6 31 19 62 53
62 66 0 6 -14 -6 -31 -26 -17 -19 -35 -35 -40 -35 -13 0 19 60 49 93 14 15 23
27 21 27 -3 0 -17 -12 -31 -27z"/>
<path d="M1810 1610 c0 -64 3 -80 15 -80 10 0 15 10 15 30 0 28 3 30 36 30 28
0 35 3 32 18 -2 11 -14 18 -36 20 -42 4 -37 26 6 30 20 2 32 9 32 18 0 10 -13
14 -50 14 l-50 0 0 -80z"/>
<path d="M1961 1668 c-5 -13 -19 -45 -30 -71 -12 -27 -21 -53 -21 -58 0 -15
30 -10 36 6 4 9 19 15 40 15 22 0 37 -6 40 -15 4 -8 15 -15 25 -15 13 0 17 5
12 18 -6 16 -5 16 14 0 25 -22 76 -23 98 -2 26 26 14 57 -29 77 -29 14 -36 21
-27 30 8 8 16 9 29 1 26 -16 44 -7 32 17 -15 26 -71 26 -95 -1 -25 -28 -8 -66
34 -75 17 -4 31 -13 31 -21 0 -16 -36 -19 -46 -3 -3 6 -17 9 -29 7 -20 -4 -27
3 -48 54 -27 62 -51 75 -66 36z m39 -65 c0 -7 -7 -13 -15 -13 -16 0 -19 9 -9
35 5 13 8 14 15 3 5 -7 9 -19 9 -25z"/>
<path d="M2200 1610 c0 -73 2 -80 20 -80 15 0 20 7 20 29 0 31 16 43 49 34 15
-4 21 -13 21 -34 0 -19 5 -29 15 -29 12 0 15 16 15 80 0 64 -3 80 -15 80 -10
0 -15 -10 -15 -30 0 -28 -3 -30 -35 -30 -32 0 -35 2 -35 30 0 23 -4 30 -20 30
-18 0 -20 -7 -20 -80z"/>
<path d="M2370 1610 c0 -73 2 -80 20 -80 18 0 20 7 20 80 0 73 -2 80 -20 80
-18 0 -20 -7 -20 -80z"/>
<path d="M2462 1683 c-22 -9 -44 -63 -37 -94 13 -58 92 -80 133 -36 29 30 30
89 2 117 -19 19 -67 26 -98 13z m79 -49 c19 -52 -45 -102 -71 -55 -14 27 -13
47 6 65 24 24 53 20 65 -10z"/>
<path d="M2600 1610 c0 -75 1 -80 21 -80 19 0 21 5 17 45 -2 25 -1 45 2 45 3
0 19 -20 35 -45 17 -24 38 -45 48 -45 15 0 17 10 17 81 0 71 -2 80 -17 77 -13
-2 -20 -16 -23 -43 l-5 -40 -30 42 c-16 24 -38 43 -47 43 -16 0 -18 -10 -18
-80z"/>
<path d="M2657 1110 c63 -36 85 -40 28 -5 l-40 24 38 1 c21 0 55 -9 77 -20 22
-11 45 -20 52 -19 7 0 -11 11 -41 25 -37 16 -71 24 -110 24 l-56 0 52 -30z"/>
<path d="M3220 3860 c-10 -6 -2 -8 25 -4 30 4 36 3 25 -5 -22 -16 1 -13 30 4
24 14 24 14 -20 14 -25 1 -52 -4 -60 -9z"/>
<path d="M1610 3669 c-6 -11 -9 -28 -7 -37 3 -11 5 -8 6 8 1 20 3 22 11 10 8
-12 10 -9 10 13 0 32 -5 34 -20 6z"/>
<path d="M1621 3618 c0 -9 -4 -25 -7 -35 -5 -17 -5 -17 6 0 6 10 9 25 7 35 -4
15 -5 15 -6 0z"/>
<path d="M3770 3443 c44 -14 45 -16 20 -23 -21 -7 -19 -8 15 -9 l40 0 -24 19
c-13 11 -33 20 -45 19 -14 0 -16 -2 -6 -6z"/>
<path d="M3730 3430 c8 -5 20 -10 25 -10 6 0 3 5 -5 10 -8 5 -19 10 -25 10 -5
0 -3 -5 5 -10z"/>
<path d="M1271 3164 c0 -11 3 -14 6 -6 3 7 2 16 -1 19 -3 4 -6 -2 -5 -13z"/>
<path d="M1192 2034 c10 -10 20 -15 24 -12 3 4 -5 12 -18 18 -22 12 -22 12 -6
-6z"/>
</g>
</svg>
